<svg width="244" height="61" viewBox="0 0 244 61" fill="none" xmlns="http://www.w3.org/2000/svg">
<g clip-path="url(#clip0_236_28162)">
<path fill-rule="evenodd" clip-rule="evenodd" d="M10.12 14.9902C4.82 19.2902 0 27.6702 0 34.4102C0 43.1302 6.23 52.4402 15.62 52.4402C19.22 52.4402 22.22 48.8502 22.22 44.8402C22.22 35.4102 4.33 33.0502 10.11 14.9902H10.12Z" fill="#343434"/>
<path fill-rule="evenodd" clip-rule="evenodd" d="M0.0400085 45.85C2.17001 55.35 9.86001 60.69 17.6 60.69C31.85 60.69 38.61 51.83 38.61 42.41C38.61 30.99 25.51 26 25.79 13.92C22.67 17.35 23.04 22.34 25.79 28.4C16.56 20.88 16.93 8.15 34.57 3C22.55 3.08 11.71 11.89 11.71 20.57C11.71 23.71 12.89 27.15 15.33 30.05C18.41 33.71 23.04 36.74 24.68 41.38C25.08 42.5 25.28 43.66 25.28 44.85C25.28 50.2 21.24 55.5 15.63 55.5C8.76001 55.5 3.25001 51.42 0.0400085 45.85V45.85Z" fill="#F49A22"/>
<path d="M53.07 52.7001C53.21 53.2901 53.47 53.8001 53.83 54.2301C54.19 54.6601 54.68 55.0001 55.3 55.2401C55.92 55.4801 56.72 55.6101 57.7 55.6101H57.74C58.72 55.6101 59.52 55.4901 60.14 55.2401C60.76 55.0001 61.25 54.6601 61.61 54.2301C61.97 53.8001 62.22 53.2901 62.37 52.7001C62.51 52.1101 62.59 51.4701 62.59 50.7801V26.5801H70.54V50.8601C70.54 53.6801 69.81 55.8301 68.34 57.3001C66.87 58.7701 64.73 59.5001 61.9 59.5001H53.52C50.7 59.5001 48.55 58.7701 47.08 57.3001C45.61 55.8301 44.88 53.6901 44.88 50.8601V49.6101H52.87V50.7801C52.87 51.4701 52.94 52.1101 53.09 52.7001H53.07Z" fill="#221E1F"/>
<path d="M74.85 35.0902C74.85 32.2702 75.58 30.1202 77.05 28.6502C78.52 27.1802 80.66 26.4502 83.49 26.4502H97.57C100.39 26.4502 102.54 27.1802 104.01 28.6502C105.48 30.1202 106.21 32.2702 106.21 35.0902V50.8602C106.21 53.6802 105.48 55.8302 104.01 57.3002C102.54 58.7702 100.4 59.5002 97.57 59.5002H83.49C80.67 59.5002 78.52 58.7702 77.05 57.3002C75.58 55.8302 74.85 53.6902 74.85 50.8602V35.0902ZM87.68 29.8202C86.27 29.8202 85.11 30.2702 84.2 31.1802C83.29 32.0902 82.84 33.2502 82.84 34.6602V51.2902C82.84 52.7002 83.29 53.8602 84.2 54.7702C85.11 55.6802 86.27 56.1302 87.68 56.1302H93.43C94.84 56.1302 96 55.6802 96.91 54.7702C97.82 53.8602 98.27 52.7002 98.27 51.2902V34.6602C98.27 33.2502 97.82 32.0902 96.91 31.1802C96 30.2702 94.84 29.8202 93.43 29.8202H87.68V29.8202Z" fill="#221E1F"/>
<path d="M110.53 29.52C110.53 27.5 111.54 26.5 113.55 26.5H129.84C130.73 26.5 131.69 26.56 132.71 26.69C133.73 26.82 134.66 27.13 135.5 27.62C136.33 28.11 137.03 28.84 137.59 29.8C138.15 30.77 138.43 32.07 138.43 33.71V37.43C138.43 38.06 138.33 38.69 138.13 39.31C137.93 39.93 137.62 40.49 137.2 41C136.78 41.5 136.28 41.94 135.69 42.3C135.1 42.66 134.42 42.9 133.64 43.01C134.68 43.01 135.63 43.18 136.49 43.51C137.35 43.84 138.1 44.3 138.72 44.89C139.34 45.48 139.82 46.16 140.17 46.94C140.52 47.72 140.69 48.55 140.69 49.45V53.04C140.69 53.96 140.55 54.81 140.28 55.59C140.01 56.37 139.6 57.04 139.05 57.62C138.5 58.2 137.83 58.65 137.02 58.98C136.21 59.31 135.28 59.48 134.21 59.48H110.54V29.52H110.53ZM126.34 41.79C127.75 41.79 128.91 41.34 129.82 40.43C130.73 39.52 131.18 38.36 131.18 36.95V34.19C131.18 31.31 129.74 29.87 126.86 29.87H118.39V41.79H126.34V41.79ZM129.02 56.09C131.9 56.09 133.34 54.65 133.34 51.77V50.26C133.34 48.85 132.89 47.69 131.98 46.78C131.07 45.87 129.91 45.42 128.5 45.42H118.39V56.09H129.02V56.09Z" fill="#221E1F"/>
<path d="M166.95 56.1801H171.18V59.6401H151.14V56.1801H158.96V30.0801H152.57V26.6201H166.96V56.1701L166.95 56.1801Z" fill="#F49B23"/>
<path d="M189.15 56.1801H193.38V59.6401H173.34V56.1801H181.16V30.0801H174.77V26.6201H189.16V56.1701L189.15 56.1801Z" fill="#F49B23"/>
<path d="M205.4 51.6804C205.4 53.1504 205.86 54.3204 206.78 55.2004C207.7 56.0804 208.85 56.5204 210.24 56.5204H212.01C213.39 56.5204 214.54 56.0804 215.47 55.2004C216.39 54.3204 216.85 53.1504 216.85 51.6804V45.8004H205.36C204.06 45.8004 202.89 45.5804 201.84 45.1504C200.79 44.7204 199.9 44.1404 199.16 43.4004C198.43 42.6704 197.86 41.8404 197.47 40.9204C197.08 40.0004 196.87 39.0304 196.84 38.0304L196.8 36.0004V35.8704L196.84 33.9704C196.87 32.9904 197.08 32.0304 197.47 31.1004C197.86 30.1604 198.42 29.3304 199.16 28.5904C199.89 27.8604 200.79 27.2704 201.84 26.8404C202.89 26.4104 204.07 26.1904 205.36 26.1904H216.25C217.55 26.1904 218.71 26.4104 219.73 26.8604C220.75 27.3104 221.62 27.9004 222.32 28.6304C223.03 29.3604 223.59 30.1904 224.01 31.1104C224.43 32.0304 224.68 32.9804 224.77 33.9604L224.81 51.0204V51.2404C224.81 54.0904 224.08 56.2404 222.61 57.7004C221.14 59.1504 218.99 59.8804 216.17 59.8804H206.1C203.28 59.8804 201.13 59.1504 199.66 57.7004C198.19 56.2504 197.46 54.0904 197.46 51.2404V50.4604H205.41V51.6704L205.4 51.6804ZM204.75 37.6804C204.75 39.1204 205.2 40.2904 206.09 41.1804C206.98 42.0704 208.15 42.5204 209.59 42.5204H216.85V34.4004C216.85 32.9604 216.4 31.7904 215.51 30.9004C214.62 30.0104 213.45 29.5604 212.01 29.5604H209.59C208.15 29.5604 206.98 30.0104 206.09 30.9004C205.2 31.7904 204.75 32.9604 204.75 34.4004V37.6804V37.6804Z" fill="#F49B23"/>
<path d="M67.5 13.0699C67.5 12.8799 67.5 12.6899 67.5 12.4899C67.5 12.2899 67.48 12.0899 67.45 11.9099H69.02C68.99 12.0899 68.98 12.2799 68.97 12.4999C68.97 12.7199 68.97 12.9099 68.97 13.0699V14.4699H71.74C72.08 14.4699 72.42 14.4699 72.75 14.4699C73.08 14.4699 73.42 14.4499 73.76 14.4199V15.7499C73.42 15.7199 73.08 15.7099 72.75 15.6999C72.42 15.6999 72.08 15.6999 71.74 15.6999H64.75C64.41 15.6999 64.07 15.6999 63.74 15.6999C63.41 15.6999 63.07 15.7199 62.73 15.7499V14.4199C63.07 14.4499 63.41 14.4599 63.74 14.4699C64.07 14.4699 64.41 14.4699 64.75 14.4699H67.51V13.0699H67.5ZM69.39 8.17988C69.64 8.65988 69.98 9.09988 70.39 9.48988C70.78 9.88988 71.24 10.2199 71.76 10.4999C72.28 10.7799 72.8 10.9799 73.32 11.1099C73.14 11.2899 72.97 11.4699 72.8 11.6599C72.63 11.8499 72.49 12.0199 72.37 12.1699C71.99 12.0599 71.6 11.8899 71.19 11.6699C70.78 11.4499 70.39 11.1899 70.01 10.8999C69.64 10.6199 69.3 10.3099 68.98 9.96988C68.66 9.62988 68.41 9.26988 68.23 8.88988C68.04 9.27988 67.8 9.63988 67.5 9.96988C67.21 10.2999 66.89 10.6099 66.54 10.8799C66.17 11.1699 65.78 11.4199 65.37 11.6399C64.96 11.8599 64.54 12.0299 64.12 12.1699C63.99 12.0299 63.84 11.8599 63.67 11.6799C63.5 11.4899 63.31 11.2999 63.11 11.0899C63.71 10.9199 64.28 10.6899 64.81 10.3999C65.35 10.1099 65.81 9.75988 66.21 9.35988C66.61 8.95988 66.89 8.56988 67.12 8.10988C67.35 7.65988 67.46 7.16988 67.46 6.63988C67.46 6.47988 67.46 6.30988 67.45 6.13988C67.45 5.95988 67.43 5.78988 67.41 5.62988H69.06C69.03 5.78988 69.02 5.95988 69.01 6.13988C69.01 6.31988 69.01 6.48988 69.01 6.64988C69.01 7.18988 69.14 7.69988 69.39 8.16988V8.17988Z" fill="#221E1F"/>
<path d="M75.24 11.43V6.72C75.24 6.53 75.24 6.34 75.24 6.17C75.24 5.99 75.22 5.8 75.19 5.6H76.71C76.68 5.8 76.67 5.99 76.66 6.17C76.66 6.35 76.66 6.53 76.66 6.72V7.27H79.5V6.72C79.5 6.53 79.5 6.34 79.5 6.17C79.5 5.99 79.48 5.8 79.45 5.6H80.94C80.91 5.8 80.9 5.99 80.89 6.17C80.89 6.35 80.89 6.53 80.89 6.72V11.43H75.25H75.24ZM77.19 13.23C77.9 12.79 78.95 12.56 80.35 12.56C81.75 12.56 82.81 12.78 83.52 13.23C84.23 13.67 84.59 14.23 84.59 14.89C84.59 15.55 84.23 16.1 83.52 16.55C82.81 16.99 81.75 17.22 80.35 17.22C78.95 17.22 77.9 17 77.19 16.55C76.48 16.11 76.13 15.55 76.13 14.89C76.13 14.23 76.48 13.68 77.19 13.23ZM79.49 8.5H76.65V10.19H79.49V8.5ZM78.39 15.77C78.88 15.99 79.53 16.09 80.35 16.09C81.17 16.09 81.82 15.98 82.3 15.77C82.78 15.56 83.03 15.27 83.03 14.91C83.03 14.55 82.79 14.25 82.3 14.03C81.81 13.81 81.17 13.71 80.35 13.71C79.53 13.71 78.88 13.82 78.39 14.03C77.9 14.25 77.66 14.54 77.66 14.91C77.66 15.28 77.9 15.56 78.39 15.77ZM84.84 7.82C85 7.82 85.17 7.82 85.34 7.82C85.52 7.82 85.68 7.8 85.84 7.77V9.1C85.68 9.07 85.52 9.06 85.35 9.05C85.18 9.05 85.02 9.05 84.87 9.05H84.3V11.16C84.3 11.39 84.3 11.61 84.3 11.83C84.3 12.05 84.32 12.27 84.35 12.49H82.81C82.84 12.27 82.85 12.05 82.86 11.83C82.86 11.61 82.87 11.39 82.87 11.16V6.58C82.87 6.36 82.87 6.14 82.86 5.92C82.86 5.7 82.83 5.48 82.81 5.25H84.35C84.32 5.48 84.31 5.7 84.3 5.92C84.3 6.14 84.3 6.36 84.3 6.58V7.82H84.84V7.82Z" fill="#221E1F"/>
<path d="M88.35 6.97023C88.16 6.97023 88 6.97023 87.85 6.97023C87.7 6.97023 87.54 6.99023 87.36 7.02023V5.69023C87.55 5.72023 87.71 5.73023 87.85 5.74023C88 5.74023 88.16 5.74023 88.35 5.74023H92.26C92.44 5.74023 92.6 5.74023 92.75 5.74023C92.9 5.74023 93.07 5.72023 93.25 5.69023V7.02023C93.06 6.99023 92.9 6.98023 92.75 6.97023C92.6 6.97023 92.44 6.97023 92.26 6.97023H91.05V7.64023C91.05 8.06023 91.13 8.45023 91.29 8.80023C91.45 9.15023 91.67 9.46023 91.93 9.74023C92.21 10.0602 92.53 10.3202 92.88 10.5302C93.23 10.7402 93.58 10.9002 93.92 11.0102C93.74 11.1902 93.57 11.3802 93.4 11.5802C93.23 11.7802 93.1 11.9402 93.01 12.0602C92.8 11.9802 92.55 11.8602 92.27 11.6802C91.99 11.5002 91.71 11.3002 91.43 11.0702C91.19 10.8802 90.98 10.6902 90.78 10.4702C90.58 10.2502 90.43 10.0302 90.31 9.80023C90.21 10.0302 90.07 10.2602 89.89 10.4902C89.71 10.7202 89.5 10.9502 89.28 11.1602C89.01 11.4102 88.72 11.6302 88.42 11.8402C88.12 12.0502 87.82 12.2202 87.53 12.3502C87.42 12.2402 87.27 12.0902 87.06 11.9002C86.85 11.7102 86.65 11.5302 86.47 11.3702C86.94 11.1902 87.4 10.9502 87.82 10.6502C88.24 10.3502 88.61 9.99023 88.91 9.59023C89.11 9.31023 89.27 9.00023 89.39 8.67023C89.51 8.34023 89.57 7.99023 89.57 7.61023V6.98023H88.37L88.35 6.97023ZM88.85 13.9802C88.85 13.8202 88.85 13.6502 88.85 13.4802C88.85 13.3002 88.83 13.1402 88.8 12.9802H90.34C90.31 13.1402 90.3 13.3002 90.29 13.4802C90.28 13.6602 90.29 13.8102 90.29 13.9602V15.5702H95.58C95.79 15.5702 96.03 15.5702 96.29 15.5702C96.55 15.5702 96.82 15.5502 97.1 15.5202V16.8702C96.82 16.8402 96.55 16.8302 96.29 16.8202C96.03 16.8202 95.8 16.8202 95.58 16.8202H88.85V14.0002V13.9802ZM94.13 9.23023C93.97 9.23023 93.81 9.23023 93.64 9.23023C93.47 9.23023 93.31 9.25023 93.16 9.28023V7.87023C93.32 7.90023 93.48 7.91023 93.66 7.92023C93.84 7.92023 94 7.92023 94.16 7.92023H95.4V6.57023C95.4 6.35023 95.4 6.13023 95.39 5.91023C95.39 5.69023 95.36 5.47023 95.34 5.24023H96.87C96.84 5.47023 96.83 5.69023 96.82 5.91023C96.82 6.13023 96.82 6.35023 96.82 6.57023V12.5602C96.82 12.7902 96.82 13.0102 96.82 13.2302C96.82 13.4502 96.84 13.6702 96.87 13.8902H95.34C95.37 13.6702 95.38 13.4502 95.39 13.2302C95.39 13.0102 95.4 12.7902 95.4 12.5602V9.22023H94.13V9.23023Z" fill="#221E1F"/>
<path d="M104.8 13.5503C104.8 13.7103 104.8 13.8803 104.8 14.0703C104.8 14.2603 104.82 14.4303 104.85 14.5903H103.29C103.32 14.4203 103.33 14.2503 103.34 14.0603C103.34 13.8803 103.34 13.7003 103.34 13.5503V12.2403H100.38C100.04 12.2403 99.7 12.2403 99.37 12.2403C99.04 12.2403 98.7 12.2603 98.36 12.2903V10.9603C98.7 10.9903 99.04 11.0003 99.37 11.0103C99.7 11.0103 100.04 11.0103 100.38 11.0103H107.35C107.69 11.0103 108.03 11.0103 108.36 11.0103C108.69 11.0103 109.03 10.9903 109.37 10.9603V12.2903C109.03 12.2603 108.69 12.2503 108.36 12.2403C108.03 12.2303 107.69 12.2403 107.35 12.2403H104.79V13.5503H104.8ZM99.72 9.87027V6.89027C99.72 6.65027 99.72 6.43027 99.72 6.22027C99.72 6.01027 99.7 5.78027 99.67 5.53027H108.08C108.05 5.78027 108.04 6.01027 108.03 6.22027C108.03 6.43027 108.03 6.66027 108.03 6.89027V9.86027H99.73L99.72 9.87027ZM99.76 14.2303C99.76 14.0703 99.76 13.9003 99.76 13.7303C99.76 13.5503 99.74 13.3903 99.71 13.2303H101.27C101.24 13.3903 101.23 13.5503 101.22 13.7203C101.22 13.8903 101.22 14.0503 101.22 14.2003V15.5703H106.88C107.09 15.5703 107.33 15.5703 107.59 15.5703C107.85 15.5703 108.12 15.5503 108.4 15.5203V16.8703C108.12 16.8403 107.85 16.8303 107.59 16.8203C107.33 16.8203 107.1 16.8203 106.88 16.8203H99.77V14.2303H99.76ZM106.64 6.77027H101.12V8.64027H106.64V6.77027Z" fill="#221E1F"/>
<path d="M111.64 7.20023C111.46 7.20023 111.26 7.22023 111.05 7.25023V5.90023C111.26 5.93023 111.46 5.94023 111.64 5.95023C111.82 5.95023 112.02 5.95023 112.24 5.95023H116.65C116.63 6.80023 116.53 7.63023 116.34 8.44023C116.15 9.25023 115.87 10.0102 115.49 10.7402C115.07 11.5602 114.53 12.3102 113.89 13.0002C113.24 13.6902 112.48 14.3002 111.61 14.8302C111.48 14.7102 111.28 14.5502 111.03 14.3502C110.78 14.1502 110.56 14.0002 110.4 13.8802C111.19 13.4702 111.89 12.9902 112.49 12.4502C113.09 11.9102 113.59 11.3202 113.98 10.6702C114.3 10.1502 114.55 9.60023 114.73 9.01023C114.91 8.42023 115.02 7.82023 115.06 7.18023H112.25C112.03 7.18023 111.83 7.18023 111.65 7.18023L111.64 7.20023ZM120.48 9.87023C120.64 9.87023 120.81 9.87023 120.98 9.87023C121.15 9.87023 121.32 9.85023 121.48 9.82023V11.2302C121.32 11.2002 121.16 11.1902 120.99 11.1802C120.82 11.1802 120.66 11.1802 120.51 11.1802H119.85V15.2702C119.85 15.5602 119.85 15.8602 119.85 16.1502C119.85 16.4502 119.87 16.7402 119.91 17.0202H118.37C118.4 16.7402 118.41 16.4502 118.42 16.1502C118.42 15.8502 118.43 15.5602 118.43 15.2702V6.95023C118.43 6.67023 118.43 6.38023 118.42 6.10023C118.42 5.81023 118.39 5.53023 118.37 5.24023H119.91C119.87 5.53023 119.85 5.82023 119.85 6.10023C119.85 6.38023 119.85 6.67023 119.85 6.95023V9.88023H120.48V9.87023Z" fill="#221E1F"/>
<path d="M130.35 15.7902C130.35 15.9502 130.35 16.1202 130.35 16.2902C130.35 16.4702 130.37 16.6302 130.4 16.7902H128.88C128.91 16.6402 128.92 16.4802 128.93 16.3102C128.93 16.1402 128.93 15.9702 128.93 15.8202V13.2702H127.25C127.01 13.2702 126.79 13.2702 126.59 13.2702C126.39 13.2702 126.17 13.2902 125.93 13.3202V12.0102C126.17 12.0402 126.39 12.0502 126.59 12.0502H128.79C129.01 12.0502 129.17 12.0502 129.27 12.0402C129.58 12.0402 129.96 12.0302 130.42 12.0102C130.88 11.9902 131.34 11.9602 131.8 11.9402C132.27 11.9102 132.7 11.8702 133.09 11.8402C133.48 11.8102 133.77 11.7802 133.94 11.7402V12.9302C133.69 12.9802 133.41 13.0302 133.08 13.0702C132.75 13.1102 132.42 13.1402 132.09 13.1702C131.75 13.2002 131.42 13.2202 131.11 13.2302C130.8 13.2402 130.54 13.2502 130.33 13.2502V15.8002L130.35 15.7902ZM132.45 7.20023C132.61 7.20023 132.78 7.18023 132.98 7.15023V8.40023C132.79 8.37023 132.61 8.36023 132.45 8.35023C132.29 8.35023 132.12 8.35023 131.94 8.35023H130.74C130.82 8.56023 130.95 8.75023 131.14 8.93023C131.33 9.11023 131.54 9.26023 131.78 9.39023C132.04 9.55023 132.33 9.68023 132.62 9.79023C132.92 9.90023 133.2 9.98023 133.45 10.0302C133.29 10.2002 133.15 10.3602 133.01 10.5202C132.88 10.6802 132.75 10.8502 132.61 11.0402C132.35 10.9702 132.1 10.8902 131.84 10.7902C131.58 10.6902 131.33 10.5702 131.09 10.4302C130.85 10.3102 130.63 10.1602 130.43 10.0002C130.23 9.84023 130.05 9.65023 129.9 9.44023C129.74 9.65023 129.56 9.85023 129.35 10.0302C129.14 10.2102 128.92 10.3802 128.67 10.5202C128.44 10.6702 128.19 10.8002 127.92 10.9202C127.65 11.0402 127.36 11.1502 127.06 11.2402C126.93 11.0802 126.77 10.9202 126.6 10.7502C126.43 10.5802 126.24 10.4102 126.06 10.2302C126.38 10.1502 126.72 10.0402 127.08 9.90023C127.44 9.76023 127.78 9.58023 128.1 9.37023C128.33 9.23023 128.53 9.07023 128.71 8.89023C128.89 8.71023 129.01 8.52023 129.09 8.32023H127.84C127.65 8.32023 127.47 8.32023 127.31 8.32023C127.15 8.32023 126.98 8.34023 126.8 8.37023V7.12023C126.99 7.15023 127.16 7.16023 127.31 7.17023C127.47 7.17023 127.65 7.17023 127.84 7.17023H131.93C132.11 7.17023 132.29 7.17023 132.44 7.17023L132.45 7.20023ZM128.95 6.43023H128.5C128.43 6.43023 128.36 6.43023 128.29 6.43023C128.22 6.43023 128.14 6.44023 128.06 6.45023V5.26023C128.22 5.28023 128.37 5.29023 128.5 5.29023H131.23C131.37 5.29023 131.52 5.29023 131.68 5.26023V6.45023C131.52 6.45023 131.37 6.43023 131.23 6.43023C131.09 6.43023 130.94 6.43023 130.79 6.43023H128.94H128.95ZM135.86 16.1502C135.86 16.4402 135.88 16.7402 135.91 17.0302H134.37C134.4 16.7402 134.41 16.4502 134.42 16.1502C134.42 15.8602 134.43 15.5602 134.43 15.2602V7.01023C134.43 6.72023 134.43 6.43023 134.42 6.13023C134.42 5.84023 134.39 5.54023 134.37 5.24023H135.91C135.88 5.54023 135.87 5.84023 135.86 6.13023C135.86 6.43023 135.86 6.72023 135.86 7.01023V15.2602C135.86 15.5602 135.86 15.8602 135.86 16.1502Z" fill="#221E1F"/>
<path d="M144.01 8.94C143.85 9.61 143.5 10.15 142.95 10.58C142.4 11 141.75 11.21 140.99 11.21C140.54 11.21 140.13 11.14 139.74 10.99C139.36 10.84 139.03 10.64 138.76 10.38C138.49 10.12 138.27 9.81 138.12 9.45C137.97 9.09 137.89 8.71 137.89 8.3C137.89 7.89 137.97 7.51 138.12 7.16C138.27 6.8 138.48 6.49 138.77 6.23C139.04 5.97 139.37 5.76 139.75 5.6C140.13 5.44 140.55 5.37 141 5.37C141.77 5.37 142.43 5.59 142.98 6.02C143.53 6.46 143.89 7.02 144.04 7.7H146.14V6.58C146.14 6.36 146.14 6.14 146.13 5.92C146.13 5.7 146.1 5.48 146.08 5.25H147.62C147.59 5.48 147.58 5.7 147.57 5.92C147.57 6.14 147.57 6.36 147.57 6.58V11.52H146.15V8.95H144.04L144.01 8.94ZM139.74 9.5C140.04 9.83 140.46 10 140.99 10C141.52 10 141.91 9.83 142.21 9.5C142.51 9.17 142.67 8.77 142.67 8.29C142.67 7.81 142.52 7.41 142.21 7.08C141.91 6.75 141.5 6.59 140.99 6.59C140.48 6.59 140.05 6.76 139.74 7.09C139.43 7.42 139.28 7.82 139.28 8.29C139.28 8.76 139.43 9.17 139.74 9.5ZM147.53 16.91H139.57V12.87C139.57 12.74 139.57 12.59 139.57 12.43C139.57 12.27 139.55 12.12 139.52 11.98H141.01C140.98 12.11 140.97 12.25 140.96 12.41C140.95 12.57 140.96 12.71 140.96 12.84V13.24H146.13V12.87C146.13 12.74 146.13 12.59 146.13 12.43C146.13 12.27 146.11 12.12 146.08 11.98H147.58C147.55 12.11 147.54 12.25 147.53 12.41C147.53 12.56 147.53 12.71 147.53 12.84V16.91V16.91ZM146.13 14.42H140.96V15.74H146.13V14.42Z" fill="#221E1F"/>
<path d="M154.9 11.2502C154.56 11.2502 154.22 11.2502 153.89 11.2502C153.56 11.2502 153.22 11.2702 152.88 11.3002V10.0902C153.22 10.1202 153.56 10.1302 153.89 10.1402C154.22 10.1402 154.56 10.1402 154.9 10.1402H161.87C162.21 10.1402 162.55 10.1402 162.88 10.1402C163.21 10.1402 163.55 10.1202 163.89 10.0902V11.3002C163.55 11.2702 163.21 11.2602 162.88 11.2502C162.55 11.2502 162.21 11.2502 161.87 11.2502H154.9ZM155.35 6.5902C155.11 6.5902 154.9 6.5902 154.71 6.5902C154.52 6.5902 154.31 6.6102 154.08 6.6402V5.4502C154.31 5.4802 154.52 5.4902 154.71 5.5002C154.9 5.5002 155.11 5.5002 155.35 5.5002H161.4C161.63 5.5002 161.84 5.5002 162.03 5.5002C162.22 5.5002 162.43 5.4802 162.67 5.4502V6.6402C162.43 6.6102 162.21 6.6002 162 6.5902C161.79 6.5902 161.58 6.5902 161.35 6.5902H161.34L161.31 8.2402H161.64C161.87 8.2402 162.08 8.2402 162.27 8.2402C162.46 8.2402 162.67 8.2202 162.91 8.1902V9.4002C162.67 9.3702 162.45 9.3602 162.24 9.3502C162.03 9.3502 161.82 9.3502 161.59 9.3502H155.15C154.91 9.3502 154.7 9.3502 154.51 9.3502C154.32 9.3502 154.11 9.3702 153.88 9.4002V8.1902C154.11 8.2202 154.32 8.2302 154.51 8.2402C154.7 8.2402 154.91 8.2402 155.15 8.2402H155.45L155.42 6.5902H155.35V6.5902ZM154.25 14.0102H160.88V13.1802H155.4C155.21 13.1802 155.02 13.1802 154.83 13.1902C154.64 13.2002 154.44 13.2102 154.26 13.2302V12.0302C154.47 12.0602 154.67 12.0702 154.85 12.0802C155.03 12.0802 155.22 12.0802 155.4 12.0802H162.57C162.54 12.2502 162.53 12.4102 162.52 12.5802C162.52 12.7502 162.51 12.9102 162.51 13.0702V15.0102H155.88V15.8502H162.16C162.35 15.8502 162.55 15.8402 162.76 15.8102V17.0002C162.54 16.9702 162.34 16.9602 162.15 16.9502C161.96 16.9502 161.77 16.9502 161.56 16.9502H154.26V14.0102H154.25ZM156.86 8.2402H159.91L159.94 6.5902H156.84L156.87 8.2402H156.86Z" fill="#221E1F"/>
<path d="M169.85 9.31H166.92V10.59H168.07C168.52 10.59 168.97 10.57 169.44 10.53C169.9 10.49 170.27 10.44 170.56 10.39V11.55C170.4 11.58 170.2 11.6 169.96 11.63C169.72 11.66 169.46 11.68 169.19 11.71C168.91 11.74 168.63 11.76 168.35 11.77C168.07 11.78 167.82 11.79 167.59 11.79H165.53V8.2H168.46V6.88H166.44C166.27 6.88 166.12 6.88 165.98 6.88C165.84 6.88 165.69 6.9 165.53 6.93V5.64C165.69 5.67 165.84 5.68 165.98 5.69C166.12 5.69 166.28 5.69 166.44 5.69H169.91C169.88 5.89 169.87 6.08 169.86 6.25C169.86 6.42 169.86 6.59 169.86 6.75V9.31H169.85ZM171.75 13.95C171.99 14.32 172.29 14.64 172.66 14.92C173.03 15.21 173.46 15.45 173.94 15.65C174.42 15.84 174.86 15.98 175.26 16.06C175.11 16.22 174.96 16.39 174.8 16.57C174.64 16.75 174.5 16.92 174.39 17.08C174.05 17.01 173.69 16.89 173.3 16.73C172.91 16.57 172.55 16.38 172.21 16.16C171.87 15.94 171.55 15.69 171.27 15.41C170.99 15.13 170.76 14.84 170.59 14.52C170.42 14.85 170.19 15.15 169.9 15.42C169.6 15.7 169.28 15.95 168.93 16.17C168.59 16.38 168.26 16.56 167.91 16.72C167.56 16.88 167.22 17 166.85 17.08C166.74 16.95 166.61 16.78 166.43 16.58C166.26 16.38 166.09 16.2 165.94 16.05C166.43 15.94 166.91 15.79 167.38 15.59C167.85 15.39 168.27 15.14 168.65 14.84C168.98 14.58 169.25 14.27 169.46 13.92C169.67 13.57 169.77 13.18 169.77 12.74C169.77 12.7 169.77 12.66 169.77 12.61C169.77 12.56 169.76 12.52 169.75 12.47H171.43C171.43 12.47 171.4 12.56 171.4 12.61V12.74C171.4 13.18 171.52 13.58 171.76 13.95H171.75ZM173.65 7.94V6.81C173.65 6.55 173.65 6.29 173.65 6.03C173.65 5.77 173.63 5.51 173.6 5.25H175.08C175.05 5.51 175.04 5.77 175.03 6.03C175.02 6.29 175.03 6.54 175.03 6.81V11.68C175.03 11.94 175.03 12.21 175.03 12.47C175.03 12.73 175.05 12.99 175.08 13.24H173.59C173.62 12.99 173.63 12.73 173.64 12.47C173.64 12.21 173.65 11.95 173.65 11.68V9.29H172.42V11.3C172.42 11.55 172.43 11.81 172.46 12.07H171C171.02 11.82 171.03 11.56 171.04 11.3C171.04 11.04 171.05 10.78 171.05 10.52V6.97C171.05 6.71 171.05 6.45 171.04 6.2C171.04 5.95 171.02 5.7 171 5.43H172.46C172.43 5.69 172.42 5.95 172.42 6.2V7.93H173.65V7.94Z" fill="#221E1F"/>
<path d="M185.63 11.0005C185.97 11.0005 186.31 11.0005 186.64 11.0005C186.97 11.0005 187.31 10.9805 187.65 10.9505V12.3005C187.31 12.2705 186.97 12.2605 186.64 12.2505C186.31 12.2405 185.97 12.2505 185.63 12.2505H178.66C178.32 12.2505 177.98 12.2505 177.65 12.2505C177.32 12.2505 176.98 12.2705 176.64 12.3005V10.9505C176.98 10.9805 177.32 10.9905 177.65 11.0005C177.98 11.0005 178.32 11.0005 178.66 11.0005H181.37V9.92047H178.9C178.66 9.92047 178.45 9.92047 178.26 9.92047C178.07 9.92047 177.86 9.94047 177.63 9.97047V8.68047C177.86 8.71047 178.07 8.72047 178.26 8.73047C178.45 8.73047 178.66 8.73047 178.9 8.73047H179.23L179.2 6.74047H179.11C178.87 6.74047 178.66 6.74047 178.47 6.74047C178.28 6.74047 178.07 6.76047 177.84 6.79047V5.48047C178.07 5.51047 178.28 5.52047 178.47 5.53047C178.66 5.53047 178.87 5.53047 179.11 5.53047H185.16C185.39 5.53047 185.6 5.53047 185.79 5.53047C185.98 5.53047 186.19 5.51047 186.43 5.48047V6.79047C186.19 6.76047 185.97 6.75047 185.76 6.74047C185.55 6.74047 185.34 6.74047 185.11 6.74047H185.07L185.04 8.73047H185.4C185.63 8.73047 185.84 8.73047 186.03 8.73047C186.22 8.73047 186.43 8.71047 186.67 8.68047V9.97047C186.43 9.94047 186.21 9.93047 186 9.92047C185.79 9.92047 185.58 9.92047 185.35 9.92047H182.92V11.0005H185.64H185.63ZM178.04 16.8905V14.2405C178.04 14.0605 178.04 13.8805 178.02 13.6905C178.01 13.5005 177.99 13.3105 177.96 13.1205H186.32C186.29 13.3205 186.28 13.5105 186.27 13.6905C186.27 13.8705 186.27 14.0505 186.27 14.2405V16.8905H178.05H178.04ZM184.83 14.2905H179.46V15.7205H184.83V14.2905ZM180.65 8.73047H183.65L183.68 6.74047H180.63L180.66 8.73047H180.65Z" fill="#221E1F"/>
</g>
<defs>
<clipPath id="clip0_236_28162">
<rect width="224.79" height="57.69" fill="white" transform="translate(0 3)"/>
</clipPath>
</defs>
</svg>
